<mxfile host="app.diagrams.net" modified="2024-07-23T00:38:08.254Z" agent="Mozilla/5.0 (Windows NT 10.0; Win64; x64) AppleWebKit/537.36 (KHTML, like Gecko) Chrome/124.0.0.0 YaBrowser/24.6.0.0 Safari/537.36" version="24.7.3" etag="VvR-9LigrBe1Qj1JHlF5" type="github">
  <diagram name="Страница — 1" id="DguqUM_-NMD7jswyguIH">
    <mxGraphModel>
      <root>
        <mxCell id="0" />
        <mxCell id="1" parent="0" />
      </root>
    </mxGraphModel>
  </diagram>
</mxfile>
